<svg width="204" height="68" viewBox="0 0 204 68" fill="none" xmlns="http://www.w3.org/2000/svg">
<g filter="url(#filter0_i_219_60)">
<path d="M37.1703 25.8483L22.0245 20.6256C21.7041 20.5151 21.3355 20.7336 21.2053 21.1111L20.7319 22.4839C20.6017 22.8615 20.7573 23.2607 21.0777 23.3712L36.2236 28.5939C36.544 28.7044 36.9126 28.4859 37.0428 28.1084L37.5162 26.7355C37.6464 26.358 37.4907 25.9587 37.1703 25.8483ZM44.2343 12.9236C43.2695 12.5909 42.1687 13.2433 41.7766 14.3802C41.6716 14.6848 41.6322 14.988 41.6439 15.2848L38.3659 16.2378C37.6692 16.4391 37.0216 15.9662 36.9283 15.1852L36.0705 8.0444C36.5903 7.80121 37.0404 7.3228 37.2623 6.67929C37.6543 5.54243 37.1896 4.35014 36.2248 4.01745C35.26 3.68475 34.1591 4.33719 33.7671 5.47406C33.5452 6.11757 33.6048 6.77174 33.8642 7.2836L28.7874 12.378C28.2326 12.9355 27.4275 12.9075 27.0066 12.3208L25.0163 9.55119C25.2033 9.32768 25.3643 9.06159 25.4694 8.75699C25.8614 7.62013 25.3967 6.42784 24.4319 6.09515C23.467 5.76245 22.3626 6.41364 21.9705 7.55051C21.5785 8.68737 22.0432 9.87966 23.0081 10.2124C23.1027 10.245 23.2033 10.2605 23.3002 10.2747L23.0804 19.4536L37.0612 24.2746L42.5456 16.911C42.6308 16.9596 42.7195 17.0094 42.8142 17.042C43.779 17.3747 44.8798 16.7223 45.2718 15.5854C45.6639 14.4485 45.1991 13.2562 44.2343 12.9236Z" fill="url(#paint0_linear_219_60)"/>
</g>
<g filter="url(#filter1_i_219_60)">
<path d="M3.49121 21.3096C3.49121 20.6748 3.71908 20.1296 4.1748 19.6738C4.63053 19.2181 5.17578 18.9902 5.81055 18.9902H25.6592C30.5257 18.9902 34.1146 20.39 36.4258 23.1895C37.7116 24.7357 38.3545 26.7132 38.3545 29.1221C38.3545 31.5146 37.2559 33.6061 35.0586 35.3965C38.1836 37.0729 39.7461 39.6771 39.7461 43.209C39.7461 46.7409 38.4928 49.4264 35.9863 51.2656C33.4961 53.0885 30.4362 54 26.8066 54H5.81055C5.17578 54 4.63053 53.7803 4.1748 53.3408C3.71908 52.8851 3.49121 52.3398 3.49121 51.7051V21.3096ZM12.6953 47.4082H26.6602C27.9134 47.4082 28.8737 47.0339 29.541 46.2852C30.2083 45.5365 30.542 44.5111 30.542 43.209C30.542 41.9069 30.2083 40.8815 29.541 40.1328C28.8737 39.3841 27.9134 39.0098 26.6602 39.0098H12.6953V47.4082ZM12.6953 32.5889H25.7568C26.7822 32.5889 27.6042 32.2878 28.2227 31.6855C28.8411 31.0671 29.1504 30.2126 29.1504 29.1221C29.1504 28.0153 28.8411 27.1527 28.2227 26.5342C27.6042 25.9157 26.7822 25.6064 25.7568 25.6064H12.6953V32.5889Z" fill="url(#paint1_linear_219_60)"/>
<path d="M63.8525 42.6865C63.8525 44.0195 63.6873 45.4095 63.3569 46.8564C63.0379 48.3034 62.5879 49.7218 62.0068 51.1118C61.4258 52.5018 60.7308 53.8063 59.9219 55.0254C59.113 56.2559 58.2243 57.3154 57.2559 58.2041L55.0854 57.0249C55.3931 56.4552 55.6836 55.8172 55.957 55.1108C56.2305 54.4045 56.4754 53.6582 56.6919 52.8721C56.9198 52.0745 57.1191 51.2542 57.29 50.4111C57.4723 49.568 57.6204 48.7363 57.7344 47.916C57.8597 47.0843 57.9508 46.2811 58.0078 45.5063C58.0762 44.7202 58.1104 43.991 58.1104 43.3188C58.1104 42.8745 58.0933 42.4017 58.0591 41.9004C58.0249 41.3877 57.9508 40.8807 57.8369 40.3794C57.7344 39.8667 57.592 39.3768 57.4097 38.9097C57.2274 38.4425 56.9824 38.0324 56.6748 37.6792C56.3786 37.326 56.014 37.0412 55.5811 36.8247C55.1595 36.6082 54.6582 36.5 54.0771 36.5C53.5075 36.5 53.0005 36.631 52.5562 36.8931C52.1118 37.1437 51.7188 37.4798 51.377 37.9014C51.0352 38.3115 50.7389 38.7843 50.4883 39.3198C50.249 39.8553 50.0496 40.4079 49.8901 40.9775C49.742 41.5358 49.6338 42.0884 49.5654 42.6353C49.4971 43.1821 49.4629 43.672 49.4629 44.105V54H43.6694V26.998H49.4458V37.1665C50.1864 36.0841 51.0921 35.2524 52.1631 34.6714C53.2454 34.0789 54.4417 33.7827 55.752 33.7827C57.1191 33.7827 58.3097 34.0049 59.3237 34.4492C60.3377 34.8936 61.1808 35.5145 61.853 36.312C62.5252 37.0981 63.0265 38.0381 63.3569 39.1318C63.6873 40.2142 63.8525 41.3991 63.8525 42.6865ZM66.6553 45.5576C66.6553 44.6576 66.7293 43.7233 66.8774 42.7549C67.0369 41.7865 67.2591 40.818 67.5439 39.8496C67.8402 38.8812 68.1934 37.9242 68.6035 36.9785C69.0137 36.0329 69.4751 35.1271 69.9878 34.2612H74.209C73.9242 35.1157 73.6678 36.0101 73.4399 36.9443C73.2235 37.8672 73.0355 38.7957 72.876 39.73C72.7279 40.6528 72.6082 41.5586 72.5171 42.4473C72.4373 43.3359 72.3975 44.1619 72.3975 44.9253C72.3975 45.3696 72.4146 45.8481 72.4487 46.3608C72.4943 46.8621 72.5684 47.3691 72.6709 47.8818C72.7734 48.3831 72.9159 48.8674 73.0981 49.3345C73.2918 49.8016 73.5368 50.2174 73.833 50.582C74.1292 50.9352 74.4881 51.2201 74.9097 51.4365C75.3426 51.6416 75.8496 51.7441 76.4307 51.7441C77.0003 51.7441 77.5073 51.6188 77.9517 51.3682C78.4074 51.1061 78.8062 50.77 79.1479 50.3599C79.4897 49.9383 79.7803 49.4598 80.0195 48.9243C80.2588 48.3888 80.4525 47.842 80.6006 47.2837C80.7601 46.714 80.874 46.1615 80.9424 45.626C81.0221 45.0791 81.062 44.5892 81.062 44.1562V34.2612H86.8384V54H84.6167L81.9678 49.4028C81.6374 50.1662 81.2329 50.8612 80.7544 51.4878C80.2873 52.103 79.7518 52.6328 79.1479 53.0771C78.5441 53.5215 77.8719 53.8633 77.1313 54.1025C76.4022 54.3418 75.6104 54.4614 74.7559 54.4614C73.3887 54.4614 72.1981 54.2393 71.1841 53.7949C70.1701 53.3506 69.327 52.7354 68.6548 51.9492C67.9826 51.1631 67.4813 50.2288 67.1509 49.1465C66.8205 48.0527 66.6553 46.8564 66.6553 45.5576ZM97.4341 54H91.6577V26.998H97.4341V44.7202C98.3797 44.0366 99.3083 43.2847 100.22 42.4644C101.143 41.644 102.02 40.7839 102.852 39.8838C103.683 38.9723 104.452 38.0438 105.159 37.0981C105.876 36.1525 106.503 35.2069 107.039 34.2612H110.969C110.172 35.6056 109.226 36.95 108.132 38.2944C107.039 39.6274 105.848 40.9035 104.561 42.1226L111.038 54H104.663L100.066 45.7627C99.2114 46.3438 98.3341 46.8792 97.4341 47.3691V54ZM134.229 42.6865C134.229 44.0195 134.063 45.4095 133.733 46.8564C133.414 48.3034 132.964 49.7218 132.383 51.1118C131.802 52.5018 131.107 53.8063 130.298 55.0254C129.489 56.2559 128.6 57.3154 127.632 58.2041L125.461 57.0249C125.769 56.4552 126.06 55.8172 126.333 55.1108C126.606 54.4045 126.851 53.6582 127.068 52.8721C127.296 52.0745 127.495 51.2542 127.666 50.4111C127.848 49.568 127.996 48.7363 128.11 47.916C128.236 47.0843 128.327 46.2811 128.384 45.5063C128.452 44.7202 128.486 43.991 128.486 43.3188C128.486 42.8745 128.469 42.4017 128.435 41.9004C128.401 41.3877 128.327 40.8807 128.213 40.3794C128.11 39.8667 127.968 39.3768 127.786 38.9097C127.603 38.4425 127.358 38.0324 127.051 37.6792C126.755 37.326 126.39 37.0412 125.957 36.8247C125.535 36.6082 125.034 36.5 124.453 36.5C123.883 36.5 123.376 36.631 122.932 36.8931C122.488 37.1437 122.095 37.4798 121.753 37.9014C121.411 38.3115 121.115 38.7843 120.864 39.3198C120.625 39.8553 120.426 40.4079 120.266 40.9775C120.118 41.5358 120.01 42.0884 119.941 42.6353C119.873 43.1821 119.839 43.672 119.839 44.105V54H114.045V26.998H119.822V37.1665C120.562 36.0841 121.468 35.2524 122.539 34.6714C123.621 34.0789 124.818 33.7827 126.128 33.7827C127.495 33.7827 128.686 34.0049 129.7 34.4492C130.714 34.8936 131.557 35.5145 132.229 36.312C132.901 37.0981 133.403 38.0381 133.733 39.1318C134.063 40.2142 134.229 41.3991 134.229 42.6865ZM158.223 42.6865C158.223 44.0195 158.057 45.4095 157.727 46.8564C157.408 48.3034 156.958 49.7218 156.377 51.1118C155.796 52.5018 155.101 53.8063 154.292 55.0254C153.483 56.2559 152.594 57.3154 151.626 58.2041L149.456 57.0249C149.763 56.4552 150.054 55.8172 150.327 55.1108C150.601 54.4045 150.846 53.6582 151.062 52.8721C151.29 52.0745 151.489 51.2542 151.66 50.4111C151.842 49.568 151.991 48.7363 152.104 47.916C152.23 47.0843 152.321 46.2811 152.378 45.5063C152.446 44.7202 152.48 43.991 152.48 43.3188C152.48 42.8745 152.463 42.4017 152.429 41.9004C152.395 41.3877 152.321 40.8807 152.207 40.3794C152.104 39.8667 151.962 39.3768 151.78 38.9097C151.597 38.4425 151.353 38.0324 151.045 37.6792C150.749 37.326 150.384 37.0412 149.951 36.8247C149.53 36.6082 149.028 36.5 148.447 36.5C147.878 36.5 147.371 36.631 146.926 36.8931C146.482 37.1437 146.089 37.4798 145.747 37.9014C145.405 38.3115 145.109 38.7843 144.858 39.3198C144.619 39.8553 144.42 40.4079 144.26 40.9775C144.112 41.5358 144.004 42.0884 143.936 42.6353C143.867 43.1821 143.833 43.672 143.833 44.105V54H138.04V26.998H143.816V37.1665C144.556 36.0841 145.462 35.2524 146.533 34.6714C147.616 34.0789 148.812 33.7827 150.122 33.7827C151.489 33.7827 152.68 34.0049 153.694 34.4492C154.708 34.8936 155.551 35.5145 156.223 36.312C156.895 37.0981 157.397 38.0381 157.727 39.1318C158.057 40.2142 158.223 41.3991 158.223 42.6865ZM181.909 54H176.133V51.6416C175.449 52.5758 174.623 53.2708 173.655 53.7266C172.698 54.1709 171.644 54.3931 170.493 54.3931C168.989 54.3931 167.645 54.1253 166.46 53.5898C165.275 53.0544 164.272 52.3252 163.452 51.4023C162.632 50.4681 162.005 49.3743 161.572 48.1211C161.139 46.8678 160.923 45.5234 160.923 44.0879C160.923 42.6523 161.139 41.3079 161.572 40.0547C162.005 38.8014 162.632 37.7134 163.452 36.7905C164.272 35.8563 165.275 35.1214 166.46 34.5859C167.645 34.0505 168.989 33.7827 170.493 33.7827C171.257 33.7827 171.98 33.8966 172.664 34.1245C173.359 34.3524 173.991 34.6771 174.561 35.0986C175.142 35.5088 175.649 36.0101 176.082 36.6025C176.526 37.1836 176.873 37.833 177.124 38.5508L179.688 34.2612H181.909V54ZM176.099 44.0879C176.099 43.5752 176.07 43.034 176.013 42.4644C175.968 41.8947 175.882 41.3307 175.757 40.7725C175.632 40.2142 175.455 39.6844 175.227 39.1831C175.011 38.6704 174.726 38.2204 174.373 37.833C174.031 37.4342 173.615 37.1209 173.125 36.8931C172.635 36.6652 172.065 36.5513 171.416 36.5513C170.767 36.5513 170.203 36.6709 169.724 36.9102C169.246 37.138 168.835 37.4513 168.494 37.8501C168.152 38.2375 167.867 38.6875 167.639 39.2002C167.423 39.7129 167.252 40.2484 167.126 40.8066C167.001 41.3649 166.91 41.9289 166.853 42.4985C166.807 43.0568 166.785 43.5866 166.785 44.0879C166.785 44.5892 166.807 45.1247 166.853 45.6943C166.91 46.264 167.001 46.828 167.126 47.3862C167.252 47.9445 167.423 48.48 167.639 48.9927C167.867 49.5054 168.152 49.9611 168.494 50.3599C168.835 50.7472 169.246 51.0605 169.724 51.2998C170.203 51.5277 170.767 51.6416 171.416 51.6416C172.008 51.6416 172.533 51.522 172.988 51.2827C173.455 51.0321 173.86 50.7017 174.202 50.2915C174.555 49.8813 174.851 49.4142 175.09 48.8901C175.33 48.366 175.523 47.8249 175.671 47.2666C175.819 46.7083 175.928 46.1558 175.996 45.6089C176.064 45.0506 176.099 44.5436 176.099 44.0879ZM203.528 36.0044L200.281 41.3877C200.144 40.932 199.967 40.4193 199.751 39.8496C199.535 39.2799 199.267 38.7502 198.948 38.2603C198.629 37.759 198.247 37.3431 197.803 37.0127C197.358 36.6709 196.846 36.5 196.265 36.5C195.729 36.5 195.262 36.6367 194.863 36.9102C194.476 37.1836 194.146 37.5425 193.872 37.9868C193.599 38.4198 193.371 38.9154 193.188 39.4736C193.018 40.0205 192.881 40.5788 192.778 41.1484C192.687 41.7067 192.625 42.2479 192.59 42.772C192.556 43.2847 192.539 43.729 192.539 44.105V54H186.746V34.2612H188.967L191.309 38.8584C191.628 38.1178 191.992 37.4399 192.402 36.8247C192.812 36.1981 193.285 35.6626 193.821 35.2183C194.356 34.7625 194.96 34.4093 195.632 34.1587C196.316 33.908 197.085 33.7827 197.939 33.7827C198.384 33.7827 198.879 33.8226 199.426 33.9023C199.973 33.9707 200.509 34.096 201.033 34.2783C201.557 34.4492 202.041 34.6771 202.485 34.9619C202.93 35.2467 203.277 35.5942 203.528 36.0044Z" fill="url(#paint2_linear_219_60)"/>
</g>
<defs>
<filter id="filter0_i_219_60" x="20.6859" y="3.9306" width="24.7251" height="28.692" filterUnits="userSpaceOnUse" color-interpolation-filters="sRGB">
<feFlood flood-opacity="0" result="BackgroundImageFix"/>
<feBlend mode="normal" in="SourceGraphic" in2="BackgroundImageFix" result="shape"/>
<feColorMatrix in="SourceAlpha" type="matrix" values="0 0 0 0 0 0 0 0 0 0 0 0 0 0 0 0 0 0 127 0" result="hardAlpha"/>
<feOffset dy="4"/>
<feGaussianBlur stdDeviation="2"/>
<feComposite in2="hardAlpha" operator="arithmetic" k2="-1" k3="1"/>
<feColorMatrix type="matrix" values="0 0 0 0 0 0 0 0 0 0 0 0 0 0 0 0 0 0 0.25 0"/>
<feBlend mode="normal" in2="shape" result="effect1_innerShadow_219_60"/>
</filter>
<filter id="filter1_i_219_60" x="1.49121" y="18.9902" width="202.037" height="42.2139" filterUnits="userSpaceOnUse" color-interpolation-filters="sRGB">
<feFlood flood-opacity="0" result="BackgroundImageFix"/>
<feBlend mode="normal" in="SourceGraphic" in2="BackgroundImageFix" result="shape"/>
<feColorMatrix in="SourceAlpha" type="matrix" values="0 0 0 0 0 0 0 0 0 0 0 0 0 0 0 0 0 0 127 0" result="hardAlpha"/>
<feOffset dx="-2" dy="3"/>
<feGaussianBlur stdDeviation="2"/>
<feComposite in2="hardAlpha" operator="arithmetic" k2="-1" k3="1"/>
<feColorMatrix type="matrix" values="0 0 0 0 0 0 0 0 0 0 0 0 0 0 0 0 0 0 0.25 0"/>
<feBlend mode="normal" in2="shape" result="effect1_innerShadow_219_60"/>
</filter>
<linearGradient id="paint0_linear_219_60" x1="24.2635" y1="5.36691" x2="56.7279" y2="42.4158" gradientUnits="userSpaceOnUse">
<stop stop-color="#FF8F15"/>
<stop offset="1" stop-color="#FCCE9B"/>
</linearGradient>
<linearGradient id="paint1_linear_219_60" x1="3.25532" y1="54.3607" x2="45.1141" y2="-1.30066" gradientUnits="userSpaceOnUse">
<stop offset="0.0109214" stop-color="#FF8F15"/>
<stop offset="1" stop-color="#FEBC73"/>
</linearGradient>
<linearGradient id="paint2_linear_219_60" x1="24.6862" y1="32.5902" x2="214.65" y2="70.3727" gradientUnits="userSpaceOnUse">
<stop stop-color="#FC8F18"/>
<stop offset="1" stop-color="#FFC88C"/>
</linearGradient>
</defs>
</svg>
